<svg width="50" height="60" viewBox="0 0 20 24" fill="none" xmlns="http://www.w3.org/2000/svg">
<path fill-rule="evenodd" clip-rule="evenodd" d="M10.2823 1.04753e-06C10.8334 -0.000515579 11.3676 0.190077 11.7939 0.539301C12.2202 0.888525 12.5123 1.37477 12.6203 1.91518C12.7283 2.45559 12.6455 3.01672 12.3861 3.50296C12.1267 3.98919 11.7068 4.37045 11.1978 4.58175C10.6888 4.79305 10.1223 4.82132 9.59486 4.66175C9.06738 4.50218 8.61155 4.16464 8.30504 3.70665C7.99854 3.24866 7.86032 2.69856 7.91396 2.15008C7.96759 1.6016 8.20975 1.08869 8.59917 0.698755C8.81979 0.477055 9.08208 0.301184 9.37095 0.181262C9.65981 0.0613398 9.96954 -0.000262951 10.2823 1.04753e-06ZM2.16755 18.563C2.01417 18.7243 1.88529 18.9074 1.78502 19.1062C1.68379 19.3066 1.61166 19.5204 1.5708 19.7412V19.782V19.81C1.50793 20.2492 1.56979 20.6972 1.74932 21.103C1.76717 21.1412 1.78247 21.1769 1.80032 21.2075L1.85388 21.3019C2.1684 21.8272 2.67779 22.207 3.27107 22.3584C3.86434 22.5098 4.49341 22.4206 5.02123 22.1103L7.38782 20.7077L7.36487 20.6771L5.59503 18.6165C5.19413 18.1536 4.62701 17.8673 4.01651 17.8196C3.40601 17.7718 2.80129 17.9665 2.33332 18.3615L2.24661 18.4405L2.16755 18.5196V18.563ZM14.4493 11.9809L15.3623 10.8945C15.7537 10.4238 15.9434 9.81776 15.8904 9.20797C15.8374 8.59818 15.5459 8.03394 15.0792 7.63787C14.6086 7.24654 14.0025 7.05676 13.3927 7.10976C12.7829 7.16277 12.2187 7.45427 11.8226 7.92094L11.3126 8.52024L11.0576 8.83137L10.9785 8.92827C10.8959 9.03029 10.7918 9.11283 10.6736 9.17C10.5554 9.22717 10.4261 9.25757 10.2948 9.25903C10.1636 9.26049 10.0336 9.23298 9.91417 9.17845C9.79475 9.12392 9.68883 9.04373 9.60395 8.94357L9.56315 8.89512L8.74709 7.92094C8.35145 7.45465 7.78791 7.16315 7.17873 7.10968C6.56954 7.05621 5.96384 7.24508 5.49302 7.63532C5.02522 8.03111 4.73273 8.59568 4.67924 9.2061C4.62574 9.81653 4.81558 10.4234 5.2074 10.8945L8.46656 14.7785C8.74198 15.1083 9.01571 15.4381 9.28773 15.7679L10.7005 17.5046L11.4478 18.4227L13.9827 16.8926C14.8387 16.3739 15.8631 16.2087 16.8388 16.4319C17.8146 16.6551 18.6652 17.2493 19.2106 18.0886L19.2616 18.1753C19.2973 18.234 19.3304 18.2926 19.361 18.3462C19.3916 18.3997 19.4274 18.4737 19.4503 18.5196C19.6079 18.8542 19.7161 19.2098 19.7716 19.5754C19.8281 19.9419 19.8324 20.3145 19.7844 20.6822V20.7026V20.7459V20.7893V20.8122C19.7214 21.1778 19.6063 21.5325 19.4427 21.8655C19.2801 22.1973 19.0705 22.5039 18.8204 22.7759C18.7822 22.8193 18.7362 22.8652 18.6852 22.9136L18.5781 23.0131L18.5424 23.0462C18.1627 23.3828 17.7204 23.6412 17.2407 23.8066C16.761 23.972 16.2534 24.0412 15.747 24.0101C15.2405 23.9791 14.7452 23.8485 14.2892 23.6258C13.8333 23.403 13.4259 23.0926 13.0901 22.7121L11.0295 20.3685L9.75441 21.1489L11.1341 22.7478C11.1999 22.8239 11.2501 22.9121 11.2818 23.0075C11.3135 23.1029 11.3261 23.2037 11.3189 23.304C11.3116 23.4043 11.2847 23.5021 11.2397 23.592C11.1946 23.6819 11.1323 23.7621 11.0563 23.8279C10.9803 23.8937 10.892 23.9439 10.7966 23.9756C10.7012 24.0073 10.6005 24.0199 10.5002 24.0127C10.3999 24.0054 10.302 23.9785 10.2121 23.9335C10.1222 23.8884 10.0421 23.8261 9.97629 23.7501L8.41046 21.9343L5.80159 23.4772C4.93728 23.9833 3.90996 24.1332 2.93708 23.8952C1.96419 23.6572 1.12208 23.05 0.588976 22.2021L0.535416 22.1154C0.504814 22.0644 0.474212 22.0057 0.44106 21.9445C0.407907 21.8833 0.379856 21.8247 0.354354 21.7686C0.199178 21.4328 0.0935168 21.0763 0.0406752 20.7102C-0.0116053 20.3432 -0.0116053 19.9705 0.0406752 19.6034V19.5805V19.5397V19.4989V19.4759C0.17238 18.7426 0.515397 18.0636 1.0276 17.5225L1.16532 17.3848L1.26732 17.293L1.31323 17.2547C2.0875 16.5928 3.09247 16.2647 4.10814 16.3421C5.12381 16.4195 6.06744 16.8962 6.73242 17.6678L8.71138 19.963L10.0528 19.1419C9.93548 19.0118 9.81818 18.8868 9.70597 18.7389C8.80319 17.6321 7.92082 16.5126 6.99254 15.4237L4.03176 11.8942C3.38365 11.119 3.06614 10.1202 3.14772 9.11315C3.2293 8.10607 3.70342 7.17139 4.46784 6.51068L4.50609 6.47753C5.27933 5.82946 6.27601 5.51074 7.28181 5.58991C8.2876 5.66907 9.22215 6.1398 9.88448 6.90086C10.0145 7.02837 10.1395 7.15588 10.2823 7.31655C10.4175 7.16863 10.5501 7.02837 10.6801 6.89831C11.3416 6.13485 12.2763 5.66164 13.2832 5.58055C14.2901 5.49947 15.2886 5.81699 16.0636 6.46477L16.1019 6.49793C16.8663 7.15864 17.3404 8.09331 17.422 9.1004C17.5036 10.1075 17.1861 11.1063 16.538 11.8814L15.5179 13.0953C15.3011 13.3503 15.0843 13.6054 14.8625 13.8604C14.7295 14.0135 14.5412 14.1075 14.3389 14.1219C14.1367 14.1362 13.937 14.0697 13.7837 13.9369L13.7659 13.9216L13.6384 13.7711C13.5632 13.6532 13.5218 13.5169 13.5186 13.3771C13.5155 13.2372 13.5507 13.0992 13.6205 12.978L14.0235 12.496L14.4468 11.986L14.4493 11.9809ZM18.2594 19.7998C18.2257 19.5827 18.1613 19.3714 18.0681 19.1725C18.0451 19.124 18.0273 19.0883 18.0145 19.0679L17.9635 18.9761C17.6423 18.4547 17.1279 18.0816 16.5325 17.9383C15.9372 17.795 15.3093 17.893 14.786 18.211L12.4347 19.6417L14.253 21.7099C14.4523 21.9386 14.6953 22.1252 14.9677 22.2587C15.2401 22.3923 15.5364 22.4701 15.8392 22.4877C16.1416 22.5085 16.4452 22.4692 16.7323 22.372C17.0195 22.2748 17.2845 22.1217 17.5121 21.9216L17.5963 21.8425C17.6193 21.8196 17.6473 21.7915 17.6754 21.7584C17.8272 21.5959 17.9543 21.412 18.0528 21.2126C18.1511 21.011 18.2198 20.7963 18.2568 20.5751V20.547V20.5037C18.2887 20.2821 18.2887 20.0571 18.2568 19.8355L18.2594 19.7998ZM10.8791 1.78515C10.7208 1.62692 10.5061 1.53804 10.2823 1.53804C10.0585 1.53804 9.84385 1.62692 9.68556 1.78515C9.6073 1.86331 9.5452 1.95613 9.50284 2.05831C9.46048 2.16048 9.43868 2.27001 9.43868 2.38062C9.43868 2.49123 9.46048 2.60075 9.50284 2.70293C9.5452 2.80511 9.6073 2.89793 9.68556 2.97609C9.84385 3.13431 10.0585 3.22319 10.2823 3.22319C10.5061 3.22319 10.7208 3.13431 10.8791 2.97609C10.9573 2.89793 11.0194 2.80511 11.0618 2.70293C11.1041 2.60075 11.1259 2.49123 11.1259 2.38062C11.1259 2.27001 11.1041 2.16048 11.0618 2.05831C11.0194 1.95613 10.9573 1.86331 10.8791 1.78515Z" fill="url(#paint0_linear)"/>
<defs>
<linearGradient id="paint0_linear" x1="-0.000128081" y1="12.0013" x2="19.8175" y2="12.0013" gradientUnits="userSpaceOnUse">
<stop offset="1" stop-color="#1B2CC1"/>
</linearGradient>
</defs>
</svg>
